<svg width="928" height="919" viewBox="0 0 928 919" fill="none" xmlns="http://www.w3.org/2000/svg">
<path fill-rule="evenodd" clip-rule="evenodd" d="M259.581 683.613L672.439 919H925.705L256.892 534.931L259.581 683.613ZM132.253 463.357L2.03125 388.576V536.774L134.951 612.557L132.253 463.357Z" fill="#F36633"/>
<path fill-rule="evenodd" clip-rule="evenodd" d="M255.817 390.637L927.451 0H680.536L253.556 245.014L255.817 390.637ZM131.415 315.102L2.45117 389.105V538L133.691 461.668L131.415 315.102Z" fill="#F36633" fill-opacity="0.5"/>
<path fill-rule="evenodd" clip-rule="evenodd" d="M249.843 145.014L925.708 537.301V388.599L247.222 0.0675915L249.843 145.014ZM123.876 0H0L125.19 72.663L123.876 0Z" fill="#F36633"/>
<path fill-rule="evenodd" clip-rule="evenodd" d="M263.84 919H271.541L925.706 537.467V388.576L261.319 779.577L263.84 919ZM139.273 851.403L24.4121 919H140.496L139.273 851.403Z" fill="#F36633" fill-opacity="0.5"/>
</svg>
