<svg width="8079" height="1680" viewBox="0 0 8079 1680" fill="none" xmlns="http://www.w3.org/2000/svg">
<path fill-rule="evenodd" clip-rule="evenodd" d="M507.13 1075.61L919.988 1311H1173.25L504.441 926.931L507.13 1075.61ZM379.802 855.357L249.58 780.576V928.774L382.5 1004.56L379.802 855.357Z" fill="#F36633"/>
<path fill-rule="evenodd" clip-rule="evenodd" d="M503.366 782.637L1175 392H928.085L501.104 637.014L503.366 782.637ZM378.964 707.102L250 781.105V930L381.24 853.668L378.964 707.102Z" fill="#F36633" fill-opacity="0.5"/>
<path fill-rule="evenodd" clip-rule="evenodd" d="M497.392 537.014L1173.26 929.301V780.599L494.771 392.068L497.392 537.014ZM371.425 392H247.549L372.739 464.663L371.425 392Z" fill="#F36633"/>
<path fill-rule="evenodd" clip-rule="evenodd" d="M511.389 1311H519.09L1173.25 929.467V780.576L508.868 1171.58L511.389 1311ZM386.822 1243.4L271.961 1311H388.044L386.822 1243.4Z" fill="#F36633" fill-opacity="0.5"/>
<path d="M2112.08 645.131C2112.08 519.447 2053.68 456.605 1936.88 456.605C1918.26 456.605 1901.76 457.875 1887.37 460.414V408.998H1942.6C2108.48 408.998 2215.97 452.162 2265.06 538.49C2282.41 568.536 2291.08 602.602 2291.08 640.688C2291.08 678.35 2284.1 711.781 2270.14 740.98C2256.6 770.18 2236.07 795.57 2208.56 817.152C2149.32 863.702 2066.8 886.977 1961.01 886.977H1887.37V839.369C1964.39 839.369 2020.46 825.616 2055.59 798.109C2093.25 767.641 2112.08 716.648 2112.08 645.131ZM1834.69 1159.93C1834.69 1189.12 1835.75 1209.01 1837.86 1219.59C1840.4 1229.75 1845.27 1237.58 1852.46 1243.08C1859.65 1248.16 1868.33 1252.18 1878.49 1255.14C1888.64 1257.68 1899.65 1260.22 1911.49 1262.76C1923.34 1264.87 1934.77 1268.47 1945.77 1273.55V1311H1587.13V1273.55C1594.32 1268.47 1602.36 1264.87 1611.25 1262.76C1620.56 1260.64 1629.45 1258.1 1637.91 1255.14C1658.22 1248.79 1669.65 1236.94 1672.19 1219.59C1674.73 1201.82 1676 1181.51 1676 1158.66V560.707C1676 513.734 1670.49 485.805 1659.49 476.918C1650.61 469.724 1638.12 464.223 1622.04 460.414C1606.38 456.182 1594.75 451.527 1587.13 446.449V408.998H1834.69V1159.93ZM2767.79 932.68C2767.79 810.805 2737.32 742.25 2676.39 727.016V672.426C2755.52 679.62 2816.46 712.839 2859.2 772.084C2899.4 827.52 2919.5 899.672 2919.5 988.539H2560.22V932.68H2767.79ZM2678.93 1272.28C2752.56 1268.89 2804.82 1234.19 2835.71 1168.18C2844.6 1149.13 2852.22 1129.67 2858.56 1109.78L2913.15 1130.09C2889.46 1218.54 2841 1277.99 2767.79 1308.46C2741.98 1319.04 2712.36 1325.39 2678.93 1327.5V1272.28ZM2506.9 959.975C2506.9 1141.94 2546.68 1244.35 2626.24 1267.2V1325.6C2543.3 1316.29 2477.49 1281.8 2428.83 1222.13C2380.16 1163.31 2355.83 1089.47 2355.83 1000.6C2355.83 907.077 2380.16 830.271 2428.83 770.18C2477.92 709.665 2542.87 676.869 2623.7 671.791V724.477C2545.84 733.786 2506.9 812.286 2506.9 959.975ZM3234.98 834.926V1185.95C3234.98 1224.04 3244.29 1246.68 3262.91 1253.87C3268.83 1256.41 3275.18 1258.53 3281.95 1260.22C3304.38 1266.57 3320.25 1272.28 3329.56 1277.36V1311H3023.6V1277.36C3031.64 1272.28 3040.11 1268.26 3048.99 1265.3C3057.88 1261.91 3066.13 1258.1 3073.75 1253.87C3091.1 1244.98 3099.78 1230.6 3099.78 1210.71V843.178C3099.78 794.512 3095.76 766.371 3087.71 758.754C3080.1 751.137 3072.48 745.635 3064.86 742.25C3057.67 738.865 3050.05 736.114 3042.01 733.998C3033.97 731.459 3026.99 727.862 3021.06 723.207V684.486H3227.36L3234.98 834.926ZM3429.22 855.238C3410.6 855.238 3396 850.795 3385.42 841.908C3374.84 833.021 3369.55 822.019 3369.55 808.9C3369.55 795.782 3375.05 782.875 3386.05 770.18C3382.25 767.641 3377.38 766.371 3371.46 766.371C3342.68 766.794 3314.75 787.107 3287.67 827.309V729.555C3318.98 690.622 3354.53 671.156 3394.31 671.156C3440.01 671.156 3470.69 691.046 3486.35 730.824C3491.43 743.096 3493.96 759.6 3493.96 780.336C3493.96 801.072 3487.83 818.845 3475.56 833.656C3463.28 848.044 3447.84 855.238 3429.22 855.238ZM3792.94 695.912H3897.04V751.771H3792.94V695.912ZM3740.25 1327.5C3667.04 1324.12 3623.88 1291.53 3610.76 1229.75C3606.53 1210.28 3604.41 1188.49 3604.41 1164.37V751.771H3518.72V713.051C3525.07 707.549 3531.84 703.106 3539.03 699.721C3546.65 695.912 3554.06 692.315 3561.25 688.93C3579.87 679.62 3593.41 668.406 3601.88 655.287C3610.34 641.745 3617.32 627.357 3622.82 612.123C3628.75 596.465 3633.61 581.02 3637.42 565.785C3641.65 550.128 3645.46 534.893 3648.85 520.082C3652.66 505.271 3657.31 490.671 3662.81 476.283L3740.25 472.475V1327.5ZM3792.94 1269.74C3824.68 1269.74 3849.43 1247.1 3867.21 1201.82C3872.71 1187.86 3878 1172.62 3883.08 1156.12L3923.7 1165.64C3912.28 1241.39 3886.25 1289.84 3845.62 1311C3830.81 1318.62 3813.25 1323.7 3792.94 1326.23V1269.74ZM4281.71 1260.22C4316.41 1260.22 4347.72 1246.68 4375.65 1219.59V1292.59C4337.57 1316.29 4290.6 1328.14 4234.74 1328.14C4142.48 1328.14 4085.14 1295.77 4062.71 1231.02C4055.1 1208.59 4051.29 1181.51 4051.29 1149.77V789.857C4051.29 767.852 4043.04 752.406 4026.53 743.52C4019.34 739.711 4011.3 736.749 4002.41 734.633C3993.53 732.094 3985.06 728.285 3977.02 723.207V684.486H4187.13V1161.2C4187.13 1227.21 4218.66 1260.22 4281.71 1260.22ZM4428.34 789.857C4428.34 767.429 4419.88 751.983 4402.95 743.52C4395.33 739.711 4386.87 736.749 4377.56 734.633C4368.25 732.094 4358.94 728.285 4349.63 723.207V684.486H4563.54V1206.9C4563.54 1228.9 4572.22 1244.14 4589.57 1252.6C4597.19 1256.41 4605.44 1259.58 4614.33 1262.12C4623.21 1264.66 4631.68 1268.47 4639.72 1273.55V1311H4437.23L4428.34 1243.71V789.857ZM4936.15 834.926V1185.95C4936.15 1224.04 4945.46 1246.68 4964.08 1253.87C4970.01 1256.41 4976.35 1258.53 4983.12 1260.22C5005.55 1266.57 5021.42 1272.28 5030.73 1277.36V1311H4724.78V1277.36C4732.82 1272.28 4741.28 1268.26 4750.17 1265.3C4759.05 1261.91 4767.3 1258.1 4774.92 1253.87C4792.27 1244.98 4800.95 1230.6 4800.95 1210.71V843.178C4800.95 794.512 4796.93 766.371 4788.89 758.754C4781.27 751.137 4773.65 745.635 4766.04 742.25C4758.84 738.865 4751.22 736.114 4743.18 733.998C4735.14 731.459 4728.16 727.862 4722.24 723.207V684.486H4928.54L4936.15 834.926ZM5130.39 855.238C5111.77 855.238 5097.17 850.795 5086.59 841.908C5076.01 833.021 5070.72 822.019 5070.72 808.9C5070.72 795.782 5076.22 782.875 5087.23 770.18C5083.42 767.641 5078.55 766.371 5072.63 766.371C5043.85 766.794 5015.92 787.107 4988.84 827.309V729.555C5020.15 690.622 5055.7 671.156 5095.48 671.156C5141.18 671.156 5171.86 691.046 5187.52 730.824C5192.6 743.096 5195.14 759.6 5195.14 780.336C5195.14 801.072 5189 818.845 5176.73 833.656C5164.46 848.044 5149.01 855.238 5130.39 855.238ZM5754.37 1243.08C5728.13 1271.01 5697.87 1292.17 5663.59 1306.56C5629.74 1320.94 5596.73 1328.14 5564.57 1328.14C5532.83 1328.14 5505.11 1324.96 5481.42 1318.62V1255.78C5498.77 1267.62 5518.44 1273.55 5540.45 1273.55C5639.05 1273.55 5688.35 1183.84 5688.35 1004.41C5688.35 861.374 5661.9 775.681 5609 747.328C5592.08 738.441 5574.73 733.998 5556.95 733.998C5539.18 733.998 5524.79 738.018 5513.79 746.059C5502.79 753.676 5492 762.351 5481.42 772.084V697.816C5511.46 680.043 5542.57 671.156 5574.73 671.156C5607.31 671.156 5639.26 677.715 5670.58 690.834C5701.89 703.952 5730.03 724.053 5755 751.137C5812.13 811.651 5840.69 894.805 5840.69 1000.6C5840.69 1100.89 5811.92 1181.72 5754.37 1243.08ZM5284.64 1316.08C5290.56 1274.61 5293.53 1226.58 5293.53 1171.99V519.447C5293.53 494.057 5285.27 476.495 5268.77 466.762C5261.15 462.107 5252.9 458.51 5244.01 455.971C5235.13 453.008 5226.45 448.988 5217.99 443.91V405.189H5428.73V1302.75C5407.15 1293.86 5391.49 1283.92 5381.76 1272.91C5369.91 1278.42 5359.96 1286.24 5351.92 1296.4C5343.88 1306.56 5338.59 1313.12 5336.05 1316.08H5284.64ZM6246.31 957.436V1041.86H5939.72V957.436H6246.31ZM6547.82 405.189V1210.71C6547.82 1230.6 6556.5 1244.98 6573.85 1253.87C6581.46 1258.1 6589.93 1261.91 6599.24 1265.3C6608.97 1268.26 6618.49 1272.28 6627.8 1277.36V1311H6332V1277.36C6340.89 1272.28 6349.99 1268.26 6359.3 1265.3C6369.03 1261.91 6377.71 1258.1 6385.32 1253.87C6403.1 1244.56 6411.98 1230.17 6411.98 1210.71V511.195C6411.98 491.306 6402.88 476.495 6384.69 466.762C6376.65 462.53 6367.76 458.933 6358.03 455.971C6348.29 453.008 6338.98 448.988 6330.1 443.91V405.189H6547.82ZM6935.03 680.678V1210.71C6935.03 1230.6 6943.7 1244.98 6961.05 1253.87C6969.1 1258.1 6977.77 1261.91 6987.08 1265.3C6996.39 1268.26 7005.49 1272.28 7014.38 1277.36V1311H6719.21V1277.36C6728.1 1272.28 6737.19 1268.26 6746.5 1265.3C6756.24 1261.91 6765.12 1258.1 6773.16 1253.87C6790.94 1244.98 6799.82 1230.6 6799.82 1210.71V786.049C6799.82 763.62 6791.36 748.174 6774.43 739.711C6766.82 735.902 6758.14 732.94 6748.41 730.824C6738.68 728.285 6728.94 724.477 6719.21 719.398V684.486L6935.03 680.678ZM6776.34 483.9C6776.34 459.356 6784.17 439.678 6799.82 424.867C6815.48 409.633 6832.41 402.016 6850.61 402.016C6869.23 402.016 6883.61 404.132 6893.77 408.363C6904.35 412.172 6913.45 417.673 6921.06 424.867C6937.15 440.102 6945.19 459.779 6945.19 483.9C6945.19 507.598 6937.15 527.064 6921.06 542.299C6905.41 557.11 6885.09 564.516 6860.13 564.516C6835.58 564.516 6815.48 557.11 6799.82 542.299C6784.17 527.488 6776.34 508.021 6776.34 483.9ZM7621.85 1243.08C7595.61 1271.01 7565.35 1292.17 7531.07 1306.56C7497.22 1320.94 7464.21 1328.14 7432.05 1328.14C7400.31 1328.14 7372.59 1324.96 7348.9 1318.62V1255.78C7366.25 1267.62 7385.92 1273.55 7407.93 1273.55C7506.53 1273.55 7555.83 1183.84 7555.83 1004.41C7555.83 861.374 7529.38 775.681 7476.48 747.328C7459.56 738.441 7442.21 733.998 7424.43 733.998C7406.66 733.998 7392.27 738.018 7381.27 746.059C7370.27 753.676 7359.48 762.351 7348.9 772.084V697.816C7378.94 680.043 7410.05 671.156 7442.21 671.156C7474.79 671.156 7506.74 677.715 7538.06 690.834C7569.37 703.952 7597.51 724.053 7622.48 751.137C7679.61 811.651 7708.17 894.805 7708.17 1000.6C7708.17 1100.89 7679.4 1181.72 7621.85 1243.08ZM7152.12 1316.08C7158.04 1274.61 7161.01 1226.58 7161.01 1171.99V519.447C7161.01 494.057 7152.75 476.495 7136.25 466.762C7128.63 462.107 7120.38 458.51 7111.49 455.971C7102.61 453.008 7093.93 448.988 7085.47 443.91V405.189H7296.21V1302.75C7274.63 1293.86 7258.97 1283.92 7249.24 1272.91C7237.39 1278.42 7227.44 1286.24 7219.4 1296.4C7211.36 1306.56 7206.07 1313.12 7203.54 1316.08H7152.12Z" fill="#F36633"/>
</svg>
