<svg width="5641" height="1070" viewBox="0 0 5641 1070" fill="none" xmlns="http://www.w3.org/2000/svg">
<path fill-rule="evenodd" clip-rule="evenodd" d="M259.34 796.193L671.812 1070H924.842L256.653 623.242L259.34 796.193ZM132.131 539.986L2.03125 453V625.387L134.826 713.539L132.131 539.986Z" fill="#F36633"/>
<path fill-rule="evenodd" clip-rule="evenodd" d="M254.046 455.418L926.874 0H680.001L251.418 286.209L254.046 455.418ZM129.454 367.656L2.03125 452.75V626L132.1 537.961L129.454 367.656Z" fill="#F36633" fill-opacity="0.5"/>
<path fill-rule="evenodd" clip-rule="evenodd" d="M249.61 169.684L924.843 626V453.027L246.991 1.07812L249.61 169.684ZM123.761 1H0L125.074 85.5234L123.761 1Z" fill="#F36633"/>
<path fill-rule="evenodd" clip-rule="evenodd" d="M249.61 169.684L924.843 626V453.027L246.991 1.07812L249.61 169.684ZM123.761 1H0L125.074 85.5234L123.761 1Z" fill="#F36633"/>
<path fill-rule="evenodd" clip-rule="evenodd" d="M263.593 1070H271.288L924.842 626.193V453L261.074 907.822L263.593 1070ZM139.143 991.371L24.3906 1070H140.364L139.143 991.371Z" fill="#F36633" fill-opacity="0.5"/>
<path d="M1237.41 862H1346.31V646.9H1458.81C1611.81 646.9 1690.11 556 1690.11 435.4C1690.11 313.9 1611.81 224.8 1458.81 224.8H1237.41V862ZM1319.31 543.4C1313.01 543.4 1313.01 535.3 1319.31 535.3C1338.21 535.3 1346.31 520 1346.31 498.4V372.4C1346.31 350.8 1338.21 335.5 1319.31 335.5C1313.01 335.5 1313.01 327.4 1319.31 327.4H1458.81C1538.91 327.4 1580.31 371.5 1580.31 436.3C1580.31 500.2 1538.91 543.4 1458.81 543.4H1319.31ZM1956.16 871.9C2024.56 871.9 2082.16 844 2123.56 791.8L2054.26 727C2022.76 763.9 1995.76 773.8 1959.76 773.8C1915.66 773.8 1878.76 759.4 1859.86 718C1852.66 702.7 1841.86 695.5 1825.66 692.8C1819.36 691.9 1820.26 684.7 1825.66 684.7H2152.36C2154.16 672.1 2155.06 659.5 2155.06 645.1C2155.06 521.8 2077.66 424.6 1948.06 424.6C1828.36 424.6 1731.16 522.7 1731.16 651.4C1731.16 779.2 1821.16 871.9 1956.16 871.9ZM1849.06 603.7C1860.76 542.5 1904.86 521.8 1947.16 521.8C1984.06 521.8 2032.66 541.6 2041.66 603.7H1849.06ZM2237.17 862H2347.87V631.6C2347.87 558.7 2391.97 538 2436.07 538H2484.67V425.5H2475.67C2417.17 425.5 2365.87 449.8 2330.77 519.1C2328.07 524.5 2320.87 520.9 2323.57 515.5C2340.67 482.2 2347.87 461.5 2347.87 439V434.5H2237.17V862ZM2781.16 862H2845.06V755.8H2805.46C2755.96 755.8 2740.66 733.3 2740.66 694.6V584.8C2740.66 560.5 2729.86 548.8 2710.96 548.8C2704.66 548.8 2704.66 540.7 2710.96 540.7H2847.76V434.5H2710.96C2704.66 434.5 2704.66 426.4 2710.96 426.4C2729.86 426.4 2740.66 414.7 2740.66 390.4V289.6H2629.96V434.5H2556.16V540.7H2629.96V713.5C2629.96 801.7 2684.86 862 2781.16 862ZM3083.71 870.1C3149.41 870.1 3192.61 847.6 3225.91 790C3229.51 783.7 3235.81 788.2 3233.11 793.6C3213.31 826 3207.91 846.7 3207.91 856.6V862H3319.51V434.5H3208.81V664.9C3208.81 737.8 3164.71 763.9 3120.61 763.9C3076.51 763.9 3032.41 737.8 3032.41 664.9V434.5H2921.71V681.1C2921.71 815.2 3002.71 870.1 3083.71 870.1ZM3431.6 862H3542.3V631.6C3542.3 558.7 3586.4 538 3630.5 538H3679.1V425.5H3670.1C3611.6 425.5 3560.3 449.8 3525.2 519.1C3522.5 524.5 3515.3 520.9 3518 515.5C3535.1 482.2 3542.3 461.5 3542.3 439V434.5H3431.6V862ZM3998.12 871.9C4117.82 871.9 4207.82 770.2 4207.82 647.8C4207.82 525.4 4116.92 424.6 3998.12 424.6C3938.72 424.6 3880.22 449.8 3845.12 519.1C3842.42 524.5 3835.22 520.9 3837.92 515.5C3855.02 482.2 3863.12 461.5 3863.12 439V224.8H3751.52V862H3862.22V857.5C3862.22 835 3855.02 814.3 3837.92 781C3835.22 774.7 3842.42 772 3845.12 777.4C3880.22 846.7 3938.72 871.9 3998.12 871.9ZM3859.52 648.7C3859.52 578.5 3907.22 525.4 3977.42 525.4C4046.72 525.4 4095.32 579.4 4095.32 648.7C4095.32 718 4046.72 771.1 3977.42 771.1C3907.22 771.1 3859.52 718.9 3859.52 648.7ZM4557.57 659.5V555.1H4285.77V659.5H4557.57ZM4647.13 862H4757.83V224.8H4647.13V862ZM4873.01 862H4983.71V434.5H4873.01V862ZM4858.61 286.9C4858.61 326.5 4889.21 357.1 4928.81 357.1C4968.41 357.1 4998.11 326.5 4998.11 286.9C4998.11 247.3 4968.41 217.6 4928.81 217.6C4889.21 217.6 4858.61 247.3 4858.61 286.9ZM5345.49 871.9C5465.19 871.9 5555.19 770.2 5555.19 647.8C5555.19 525.4 5464.29 424.6 5345.49 424.6C5286.09 424.6 5227.59 449.8 5192.49 519.1C5189.79 524.5 5182.59 520.9 5185.29 515.5C5202.39 482.2 5210.49 461.5 5210.49 439V224.8H5098.89V862H5209.59V857.5C5209.59 835 5202.39 814.3 5185.29 781C5182.59 774.7 5189.79 772 5192.49 777.4C5227.59 846.7 5286.09 871.9 5345.49 871.9ZM5206.89 648.7C5206.89 578.5 5254.59 525.4 5324.79 525.4C5394.09 525.4 5442.69 579.4 5442.69 648.7C5442.69 718 5394.09 771.1 5324.79 771.1C5254.59 771.1 5206.89 718.9 5206.89 648.7Z" fill="black" fill-opacity="0.72"/>
</svg>
